<svg width="56" height="56" viewBox="0 0 56 56" fill="none" xmlns="http://www.w3.org/2000/svg">
<path d="M28 3.89453C22.0767 3.89453 16.7806 5.26849 12.9567 7.53393C9.13633 9.79727 6.75 12.9761 6.75 16.5857V38.7034C6.75 42.3129 9.13633 45.4918 12.9567 47.7551C16.7806 50.0206 22.0767 51.3945 28 51.3945C33.9233 51.3945 39.2194 50.0206 43.0433 47.7551C46.8637 45.4918 49.25 42.3129 49.25 38.7034V16.5857C49.25 12.9761 46.8637 9.79727 43.0433 7.53393C39.2194 5.26849 33.9233 3.89453 28 3.89453ZM28 7.15924C32.9312 7.15924 37.4697 8.25984 40.7667 10.0013C44.0778 11.7502 46.0691 14.1041 46.0691 16.5857C46.0691 19.0673 44.0778 21.4212 40.7667 23.1701C37.4697 24.9116 32.9312 26.0122 28 26.0122C23.0688 26.0122 18.5303 24.9116 15.2333 23.1701C11.9222 21.4212 9.93085 19.0673 9.93085 16.5857C9.93085 14.1041 11.9222 11.7502 15.2333 10.0013C18.5303 8.25984 23.0688 7.15924 28 7.15924ZM46.0691 38.7034C46.0691 41.185 44.0778 43.5389 40.7667 45.2878C37.4697 47.0292 32.9312 48.1298 28 48.1298C23.0688 48.1298 18.5303 47.0292 15.2333 45.2878C11.9222 43.5389 9.93085 41.185 9.93085 38.7034V34.4232C13.6637 38.0152 20.305 40.3357 28 40.3357C35.695 40.3357 42.3363 38.0152 46.0691 34.4232V38.7034ZM46.0691 27.6445C46.0691 30.1262 44.0778 32.4801 40.7667 34.229C37.4697 35.9704 32.9312 37.071 28 37.071C23.0688 37.071 18.5303 35.9704 15.2333 34.229C11.9222 32.4801 9.93085 30.1262 9.93085 27.6445V23.3644C13.6637 26.9564 20.305 29.2769 28 29.2769C35.695 29.2769 42.3363 26.9564 46.0691 23.3644V27.6445Z" fill="#1057EF" stroke="#1057EF" stroke-width="0.5"/>
</svg>
