<svg width="56" height="57" viewBox="0 0 56 57" fill="none" xmlns="http://www.w3.org/2000/svg">
<path d="M28.0003 47.9491C33.0615 47.9491 37.9155 45.9383 41.4943 42.3591C45.0731 38.7798 47.0837 33.9253 47.0837 28.8635C47.0837 23.8017 45.0731 18.9472 41.4943 15.3679C37.9155 11.7887 33.0615 9.77787 28.0003 9.77787C22.9391 9.77787 18.0852 11.7887 14.5064 15.3679C10.9275 18.9472 8.91699 23.8017 8.91699 28.8635C8.91699 33.9253 10.9275 38.7798 14.5064 42.3591C18.0852 45.9383 22.9391 47.9491 28.0003 47.9491ZM44.4111 45.2763C40.0587 49.6292 34.1556 52.0746 28.0003 52.0746C21.8451 52.0746 15.942 49.6292 11.5896 45.2763C7.23715 40.9233 4.79199 35.0195 4.79199 28.8635C4.79199 22.7075 7.23715 16.8037 11.5896 12.4507C15.942 8.09779 21.8451 5.65234 28.0003 5.65234C34.1556 5.65234 40.0587 8.09779 44.4111 12.4507C48.7635 16.8037 51.2087 22.7075 51.2087 28.8635C51.2087 35.0195 48.7635 40.9233 44.4111 45.2763ZM30.792 37.6145C30.792 38.355 30.4979 39.0652 29.9743 39.5888C29.4508 40.1124 28.7407 40.4066 28.0003 40.4066C27.2599 40.4066 26.5499 40.1124 26.0263 39.5888C25.5028 39.0652 25.2087 38.355 25.2087 37.6145C25.2087 36.8741 25.5028 36.1639 26.0263 35.6403C26.5499 35.1167 27.2599 34.8225 28.0003 34.8225C28.7407 34.8225 29.4508 35.1167 29.9743 35.6403C30.4979 36.1639 30.792 36.8741 30.792 37.6145ZM29.4587 17.9246C29.8455 18.3114 30.0628 18.8361 30.0628 19.3832V29.5927C30.0628 30.1398 29.8455 30.6645 29.4587 31.0513C29.0719 31.4382 28.5473 31.6555 28.0003 31.6555C27.4533 31.6555 26.9287 31.4382 26.5419 31.0513C26.1551 30.6645 25.9378 30.1398 25.9378 29.5927V19.3832C25.9378 18.8361 26.1551 18.3114 26.5419 17.9246C26.9287 17.5377 27.4533 17.3204 28.0003 17.3204C28.5473 17.3204 29.0719 17.5377 29.4587 17.9246Z" fill="#1057EF" stroke="#B5CBFA" stroke-width="0.25"/>
</svg>
